<svg xmlns="http://www.w3.org/2000/svg" xmlns:xlink="http://www.w3.org/1999/xlink" width="500" zoomAndPan="magnify" viewBox="0 0 375 374.999991" height="500" preserveAspectRatio="xMidYMid meet" version="1.0"><defs><g/><clipPath id="6f5d05335d"><path d="M 159 133 L 223 133 L 223 143.617188 L 159 143.617188 Z M 159 133 " clip-rule="nonzero"/></clipPath><clipPath id="625b92a35a"><path d="M 147.21875 100 L 157 100 L 157 110 L 147.21875 110 Z M 147.21875 100 " clip-rule="nonzero"/></clipPath><clipPath id="bc0e700c7e"><path d="M 185 79.867188 L 197 79.867188 L 197 91 L 185 91 Z M 185 79.867188 " clip-rule="nonzero"/></clipPath><clipPath id="c54fd81aa3"><path d="M 224 100 L 234.21875 100 L 234.21875 110 L 224 110 Z M 224 100 " clip-rule="nonzero"/></clipPath><clipPath id="798852cab8"><path d="M 106.328125 141 L 273.578125 141 L 273.578125 284 L 106.328125 284 Z M 106.328125 141 " clip-rule="nonzero"/></clipPath><clipPath id="471d794a72"><path d="M 106.328125 140 L 273.578125 140 L 273.578125 285 L 106.328125 285 Z M 106.328125 140 " clip-rule="nonzero"/></clipPath></defs><g clip-path="url(#6f5d05335d)"><path fill="#f8bf3c" d="M 159.144531 133.738281 L 160.53125 139.28125 C 169.734375 142.046875 179.957031 143.589844 190.71875 143.589844 C 201.484375 143.589844 211.710938 142.046875 220.90625 139.28125 L 222.292969 133.738281 C 212.710938 136.734375 202.007812 138.410156 190.71875 138.410156 C 179.4375 138.410156 168.734375 136.734375 159.144531 133.738281 Z M 159.144531 133.738281 " fill-opacity="1" fill-rule="evenodd"/></g><path fill="#ffde58" d="M 206.816406 113.210938 C 197.855469 110.789062 192.910156 100.53125 192.792969 87.011719 L 188.652344 87.011719 C 188.53125 100.53125 183.582031 110.789062 174.628906 113.210938 C 167.609375 115.109375 159.460938 111.847656 151.941406 105.039062 L 154.328125 114.523438 L 158.269531 130.261719 C 168.007812 133.523438 179.035156 135.359375 190.71875 135.359375 C 202.410156 135.359375 213.429688 133.523438 223.167969 130.261719 L 229.5 105.039062 C 228.535156 105.914062 227.5625 106.722656 226.582031 107.476562 C 219.910156 112.601562 212.929688 114.863281 206.816406 113.210938 Z M 206.816406 113.210938 " fill-opacity="1" fill-rule="evenodd"/><g clip-path="url(#625b92a35a)"><path fill="#f8bf3c" d="M 156.535156 105.039062 C 156.535156 105.339844 156.503906 105.636719 156.445312 105.925781 C 156.386719 106.21875 156.300781 106.503906 156.183594 106.78125 C 156.070312 107.054688 155.925781 107.316406 155.761719 107.566406 C 155.59375 107.8125 155.402344 108.042969 155.1875 108.253906 C 154.976562 108.464844 154.742188 108.65625 154.492188 108.820312 C 154.242188 108.984375 153.976562 109.125 153.699219 109.242188 C 153.421875 109.355469 153.132812 109.441406 152.839844 109.5 C 152.542969 109.558594 152.246094 109.585938 151.941406 109.585938 C 151.640625 109.585938 151.34375 109.558594 151.046875 109.5 C 150.753906 109.441406 150.464844 109.355469 150.1875 109.242188 C 149.90625 109.125 149.644531 108.984375 149.394531 108.820312 C 149.140625 108.65625 148.910156 108.464844 148.695312 108.253906 C 148.484375 108.042969 148.292969 107.8125 148.125 107.566406 C 147.957031 107.316406 147.816406 107.054688 147.703125 106.78125 C 147.585938 106.503906 147.5 106.21875 147.441406 105.925781 C 147.382812 105.636719 147.351562 105.339844 147.351562 105.039062 C 147.351562 104.742188 147.382812 104.445312 147.441406 104.152344 C 147.5 103.859375 147.585938 103.578125 147.703125 103.300781 C 147.816406 103.027344 147.957031 102.761719 148.125 102.515625 C 148.292969 102.265625 148.484375 102.039062 148.695312 101.828125 C 148.910156 101.617188 149.140625 101.425781 149.394531 101.261719 C 149.644531 101.09375 149.90625 100.957031 150.1875 100.839844 C 150.464844 100.726562 150.753906 100.640625 151.046875 100.582031 C 151.34375 100.523438 151.640625 100.496094 151.941406 100.496094 C 152.246094 100.496094 152.542969 100.523438 152.839844 100.582031 C 153.132812 100.640625 153.421875 100.726562 153.699219 100.839844 C 153.976562 100.957031 154.242188 101.09375 154.492188 101.261719 C 154.742188 101.425781 154.976562 101.617188 155.1875 101.828125 C 155.402344 102.039062 155.59375 102.265625 155.761719 102.515625 C 155.925781 102.761719 156.070312 103.027344 156.183594 103.300781 C 156.300781 103.578125 156.386719 103.859375 156.445312 104.152344 C 156.503906 104.445312 156.535156 104.742188 156.535156 105.039062 Z M 156.535156 105.039062 " fill-opacity="1" fill-rule="nonzero"/></g><g clip-path="url(#bc0e700c7e)"><path fill="#f8bf3c" d="M 196.105469 85.203125 C 196.105469 85.554688 196.070312 85.902344 196.003906 86.246094 C 195.933594 86.585938 195.832031 86.921875 195.695312 87.246094 C 195.558594 87.570312 195.394531 87.875 195.199219 88.167969 C 195 88.457031 194.777344 88.726562 194.527344 88.976562 C 194.277344 89.222656 194.003906 89.445312 193.710938 89.640625 C 193.417969 89.832031 193.105469 90 192.78125 90.132812 C 192.453125 90.265625 192.117188 90.367188 191.769531 90.4375 C 191.421875 90.503906 191.074219 90.539062 190.71875 90.539062 C 190.363281 90.539062 190.015625 90.503906 189.667969 90.4375 C 189.320312 90.367188 188.984375 90.265625 188.65625 90.132812 C 188.332031 90 188.019531 89.832031 187.726562 89.640625 C 187.429688 89.445312 187.160156 89.222656 186.910156 88.976562 C 186.660156 88.726562 186.4375 88.457031 186.238281 88.167969 C 186.042969 87.875 185.875 87.570312 185.742188 87.246094 C 185.605469 86.921875 185.503906 86.585938 185.433594 86.246094 C 185.367188 85.902344 185.332031 85.554688 185.332031 85.203125 C 185.332031 84.851562 185.367188 84.507812 185.433594 84.164062 C 185.503906 83.820312 185.605469 83.484375 185.742188 83.160156 C 185.875 82.839844 186.042969 82.53125 186.238281 82.238281 C 186.4375 81.949219 186.660156 81.679688 186.910156 81.429688 C 187.160156 81.183594 187.429688 80.960938 187.726562 80.769531 C 188.019531 80.574219 188.332031 80.410156 188.65625 80.273438 C 188.984375 80.140625 189.320312 80.039062 189.667969 79.972656 C 190.015625 79.902344 190.363281 79.867188 190.71875 79.867188 C 191.074219 79.867188 191.421875 79.902344 191.769531 79.972656 C 192.117188 80.039062 192.453125 80.140625 192.78125 80.273438 C 193.105469 80.410156 193.417969 80.574219 193.710938 80.769531 C 194.003906 80.960938 194.277344 81.183594 194.527344 81.429688 C 194.777344 81.679688 195 81.949219 195.199219 82.238281 C 195.394531 82.53125 195.558594 82.839844 195.695312 83.160156 C 195.832031 83.484375 195.933594 83.820312 196.003906 84.164062 C 196.070312 84.507812 196.105469 84.851562 196.105469 85.203125 Z M 196.105469 85.203125 " fill-opacity="1" fill-rule="nonzero"/></g><g clip-path="url(#c54fd81aa3)"><path fill="#f8bf3c" d="M 234.089844 105.039062 C 234.089844 105.339844 234.0625 105.636719 234.003906 105.925781 C 233.945312 106.21875 233.859375 106.503906 233.742188 106.78125 C 233.625 107.054688 233.484375 107.316406 233.316406 107.566406 C 233.152344 107.8125 232.960938 108.042969 232.746094 108.253906 C 232.535156 108.464844 232.300781 108.65625 232.050781 108.820312 C 231.800781 108.984375 231.535156 109.125 231.257812 109.242188 C 230.980469 109.355469 230.691406 109.441406 230.398438 109.5 C 230.101562 109.558594 229.800781 109.585938 229.5 109.585938 C 229.199219 109.585938 228.902344 109.558594 228.605469 109.5 C 228.308594 109.441406 228.023438 109.355469 227.746094 109.242188 C 227.464844 109.125 227.203125 108.984375 226.949219 108.820312 C 226.699219 108.65625 226.46875 108.464844 226.253906 108.253906 C 226.042969 108.042969 225.851562 107.8125 225.683594 107.566406 C 225.515625 107.316406 225.375 107.054688 225.261719 106.78125 C 225.144531 106.503906 225.058594 106.21875 225 105.925781 C 224.941406 105.636719 224.910156 105.339844 224.910156 105.039062 C 224.910156 104.742188 224.941406 104.445312 225 104.152344 C 225.058594 103.859375 225.144531 103.578125 225.261719 103.300781 C 225.375 103.027344 225.515625 102.761719 225.683594 102.515625 C 225.851562 102.265625 226.042969 102.039062 226.253906 101.828125 C 226.46875 101.617188 226.699219 101.425781 226.949219 101.261719 C 227.203125 101.09375 227.464844 100.957031 227.746094 100.839844 C 228.023438 100.726562 228.308594 100.640625 228.605469 100.582031 C 228.902344 100.523438 229.199219 100.496094 229.5 100.496094 C 229.800781 100.496094 230.101562 100.523438 230.398438 100.582031 C 230.691406 100.640625 230.980469 100.726562 231.257812 100.839844 C 231.535156 100.957031 231.800781 101.09375 232.050781 101.261719 C 232.300781 101.425781 232.535156 101.617188 232.746094 101.828125 C 232.960938 102.039062 233.152344 102.265625 233.316406 102.515625 C 233.484375 102.761719 233.625 103.027344 233.742188 103.300781 C 233.859375 103.578125 233.945312 103.859375 234.003906 104.152344 C 234.0625 104.445312 234.089844 104.742188 234.089844 105.039062 Z M 234.089844 105.039062 " fill-opacity="1" fill-rule="nonzero"/></g><path fill="#f8bf3c" d="M 180.132812 106.472656 C 176.207031 103.824219 173.113281 98.777344 171.292969 92.261719 L 169.789062 92.660156 L 168.289062 93.058594 C 170.121094 100.054688 169.839844 106.324219 167.351562 110.605469 C 169.515625 111.050781 171.722656 111.085938 173.878906 110.5 C 176.453125 109.804688 178.503906 108.363281 180.132812 106.472656 Z M 180.132812 106.472656 " fill-opacity="1" fill-rule="evenodd"/><path fill="#f8bf3c" d="M 169.789062 88.945312 C 171.863281 88.945312 173.546875 90.609375 173.546875 92.660156 C 173.546875 94.714844 171.863281 96.382812 169.789062 96.382812 C 167.71875 96.382812 166.03125 94.714844 166.03125 92.660156 C 166.03125 90.609375 167.71875 88.945312 169.789062 88.945312 Z M 169.789062 88.945312 " fill-opacity="1" fill-rule="evenodd"/><path fill="#f8bf3c" d="M 201.308594 106.472656 C 205.238281 103.824219 208.332031 98.777344 210.152344 92.261719 L 211.652344 92.660156 L 213.148438 93.058594 C 211.324219 100.054688 211.597656 106.320312 214.085938 110.597656 C 211.929688 111.050781 209.722656 111.085938 207.5625 110.5 C 204.984375 109.804688 202.933594 108.363281 201.308594 106.472656 Z M 201.308594 106.472656 " fill-opacity="1" fill-rule="evenodd"/><path fill="#f8bf3c" d="M 211.652344 88.945312 C 209.582031 88.945312 207.894531 90.609375 207.894531 92.660156 C 207.894531 94.714844 209.582031 96.382812 211.652344 96.382812 C 213.726562 96.382812 215.40625 94.714844 215.40625 92.660156 C 215.40625 90.609375 213.726562 88.945312 211.652344 88.945312 Z M 211.652344 88.945312 " fill-opacity="1" fill-rule="evenodd"/><g clip-path="url(#798852cab8)"><path fill="#c9eeff" d="M 250.636719 237.371094 C 259.804688 237.371094 266.339844 235.351562 270.101562 231.339844 C 272.59375 228.679688 273.539062 225.285156 272.761719 221.78125 C 271.585938 216.476562 266.363281 210.953125 256.792969 204.890625 C 254.300781 203.3125 251.648438 201.789062 249.054688 200.40625 C 259.648438 181.167969 261.472656 162.011719 249.300781 150.96875 C 222.003906 126.191406 189.953125 156.316406 189.953125 156.316406 C 189.953125 156.316406 157.90625 126.191406 130.609375 150.96875 C 118.4375 162.011719 120.261719 181.167969 130.851562 200.40625 C 128.261719 201.789062 125.609375 203.3125 123.113281 204.890625 C 113.546875 210.953125 108.324219 216.476562 107.148438 221.78125 C 106.367188 225.285156 107.3125 228.679688 109.808594 231.339844 C 113.570312 235.351562 120.105469 237.371094 129.273438 237.371094 C 130.996094 237.371094 132.816406 237.300781 134.726562 237.15625 C 139.550781 236.792969 144.710938 235.972656 149.871094 234.773438 C 146.851562 236.972656 143.886719 239.410156 141.195312 241.957031 C 134.578125 248.210938 126.847656 257.644531 127.605469 267.078125 C 128.027344 272.292969 130.929688 276.230469 134.929688 278.980469 L 131.691406 282.378906 C 135.386719 283.738281 139.113281 283.566406 142.617188 282.550781 C 145.839844 283.5 149.199219 283.9375 152.28125 283.882812 C 164.714844 283.664062 177.230469 280.488281 189.273438 277.660156 C 189.5 277.609375 189.726562 277.554688 189.953125 277.5 C 190.183594 277.554688 190.410156 277.609375 190.636719 277.660156 C 191.363281 277.832031 192.089844 278.003906 192.820312 278.175781 C 193.394531 278.3125 193.972656 278.449219 194.550781 278.585938 C 194.800781 278.644531 195.050781 278.703125 195.304688 278.761719 C 195.992188 278.925781 196.683594 279.085938 197.371094 279.246094 C 197.484375 279.273438 197.59375 279.296875 197.703125 279.324219 C 198.273438 279.457031 198.847656 279.589844 199.417969 279.71875 C 199.632812 279.769531 199.847656 279.816406 200.0625 279.867188 C 200.589844 279.984375 201.117188 280.105469 201.644531 280.222656 C 201.820312 280.261719 201.996094 280.300781 202.175781 280.339844 C 202.855469 280.492188 203.535156 280.640625 204.214844 280.785156 C 204.378906 280.820312 204.539062 280.851562 204.699219 280.886719 C 205.234375 281 205.769531 281.113281 206.308594 281.222656 C 206.523438 281.265625 206.742188 281.308594 206.960938 281.351562 C 207.527344 281.46875 208.09375 281.578125 208.660156 281.6875 C 208.792969 281.710938 208.929688 281.738281 209.0625 281.765625 C 209.746094 281.894531 210.429688 282.019531 211.113281 282.140625 C 211.300781 282.171875 211.492188 282.203125 211.683594 282.238281 C 212.207031 282.328125 212.726562 282.414062 213.25 282.5 C 213.460938 282.535156 213.671875 282.566406 213.882812 282.601562 C 214.546875 282.703125 215.207031 282.804688 215.871094 282.898438 C 215.90625 282.902344 215.941406 282.910156 215.976562 282.914062 C 216.550781 282.996094 217.125 283.070312 217.699219 283.144531 L 217.699219 283.136719 C 221.007812 283.554688 224.320312 283.824219 227.628906 283.882812 C 230.707031 283.9375 234.070312 283.5 237.292969 282.550781 C 240.796875 283.566406 244.523438 283.738281 248.21875 282.382812 L 244.980469 278.980469 C 248.976562 276.230469 251.882812 272.292969 252.300781 267.078125 C 253.0625 257.644531 245.332031 248.210938 238.714844 241.957031 C 236.019531 239.410156 233.058594 236.972656 230.039062 234.773438 C 235.195312 235.972656 240.359375 236.792969 245.183594 237.15625 C 247.09375 237.300781 248.910156 237.371094 250.636719 237.371094 Z M 251.121094 214.511719 C 258.738281 219.382812 261.257812 222.660156 261.765625 223.890625 C 260.023438 225.457031 255.410156 226.316406 249.15625 226.164062 C 249.15625 226.164062 249.15625 226.160156 249.15625 226.160156 C 244.199219 226.039062 238.207031 225.28125 231.789062 223.738281 C 236 219.28125 239.808594 214.628906 243.125 209.894531 C 245.796875 211.300781 248.570312 212.878906 251.121094 214.511719 Z M 128.785156 214.511719 C 131.339844 212.878906 134.113281 211.300781 136.785156 209.894531 C 140.101562 214.625 143.90625 219.28125 148.121094 223.738281 C 141.703125 225.28125 135.710938 226.042969 130.753906 226.160156 C 130.753906 226.164062 130.753906 226.164062 130.75 226.164062 C 124.496094 226.316406 119.886719 225.457031 118.140625 223.890625 C 118.652344 222.660156 121.167969 219.382812 128.785156 214.511719 Z M 163.414062 270.113281 C 162.296875 270.316406 161.171875 270.523438 160.042969 270.714844 C 160.949219 269.742188 161.449219 269.121094 161.449219 269.121094 C 162.230469 269.335938 163.183594 269.621094 164.269531 269.953125 C 163.984375 270.007812 163.699219 270.0625 163.414062 270.113281 Z M 216.953125 270.195312 C 216.800781 270.167969 216.648438 270.140625 216.496094 270.113281 C 216.210938 270.0625 215.921875 270.007812 215.636719 269.953125 C 216.726562 269.621094 217.679688 269.335938 218.460938 269.121094 C 218.460938 269.121094 218.960938 269.742188 219.867188 270.714844 C 219.25 270.609375 218.636719 270.503906 218.027344 270.390625 C 217.667969 270.328125 217.3125 270.261719 216.953125 270.195312 Z M 236.230469 269.796875 L 222.292969 255.167969 C 222.292969 255.167969 218.695312 256.1875 218.691406 256.191406 C 212.257812 258.015625 205.8125 259.789062 199.359375 261.535156 C 196.230469 262.378906 193.097656 263.21875 189.953125 264.042969 C 186.8125 263.21875 183.679688 262.378906 180.550781 261.535156 C 174.09375 259.789062 167.648438 258.015625 161.21875 256.191406 C 161.214844 256.1875 157.613281 255.167969 157.613281 255.167969 L 143.675781 269.796875 C 134.828125 264.761719 144.75 255.660156 149.714844 250.96875 C 154.601562 246.351562 160.8125 241.941406 165.859375 239.40625 C 173.320312 244.878906 181.433594 249.597656 189.953125 253.179688 C 198.472656 249.597656 206.585938 244.878906 214.046875 239.40625 C 219.097656 241.941406 225.308594 246.351562 230.195312 250.96875 C 235.160156 255.660156 245.082031 264.761719 236.230469 269.796875 Z M 236.230469 269.796875 " fill-opacity="1" fill-rule="nonzero"/></g><g clip-path="url(#471d794a72)"><path fill="#000000" d="M 183.332031 184.09375 C 183.539062 183.820312 183.929688 183.769531 184.203125 183.976562 C 185.867188 185.246094 187.855469 185.917969 189.953125 185.917969 C 192.050781 185.917969 194.039062 185.246094 195.707031 183.976562 C 195.976562 183.769531 196.367188 183.820312 196.574219 184.09375 C 196.785156 184.367188 196.730469 184.753906 196.457031 184.964844 C 194.574219 186.398438 192.324219 187.15625 189.953125 187.15625 C 187.582031 187.15625 185.332031 186.398438 183.449219 184.964844 C 183.175781 184.753906 183.125 184.367188 183.332031 184.09375 Z M 160.09375 176.203125 C 162.761719 177.601562 165.9375 178.339844 169.285156 178.339844 C 172.632812 178.339844 175.808594 177.601562 178.476562 176.203125 C 178.78125 176.042969 178.898438 175.667969 178.738281 175.367188 C 178.578125 175.0625 178.203125 174.945312 177.898438 175.105469 C 175.410156 176.410156 172.429688 177.101562 169.285156 177.101562 C 166.140625 177.101562 163.160156 176.410156 160.671875 175.105469 C 160.367188 174.945312 159.992188 175.0625 159.832031 175.367188 C 159.671875 175.667969 159.789062 176.042969 160.09375 176.203125 Z M 201.433594 176.203125 C 204.097656 177.601562 207.277344 178.339844 210.625 178.339844 C 213.96875 178.339844 217.148438 177.601562 219.816406 176.203125 C 220.117188 176.042969 220.234375 175.667969 220.074219 175.367188 C 219.917969 175.0625 219.542969 174.945312 219.238281 175.105469 C 216.75 176.410156 213.769531 177.101562 210.625 177.101562 C 207.476562 177.101562 204.5 176.410156 202.007812 175.105469 C 201.703125 174.945312 201.328125 175.0625 201.171875 175.367188 C 201.011719 175.667969 201.128906 176.042969 201.433594 176.203125 Z M 273.035156 227.066406 C 273.019531 227.117188 273.003906 227.164062 272.988281 227.210938 C 272.941406 227.363281 272.898438 227.515625 272.84375 227.664062 C 272.816406 227.738281 272.785156 227.8125 272.757812 227.886719 C 272.710938 228.015625 272.664062 228.140625 272.613281 228.265625 C 272.566406 228.371094 272.515625 228.476562 272.464844 228.582031 C 272.425781 228.671875 272.386719 228.765625 272.339844 228.855469 C 272.273438 228.992188 272.199219 229.128906 272.125 229.261719 C 272.09375 229.320312 272.066406 229.375 272.03125 229.433594 C 271.941406 229.589844 271.84375 229.746094 271.746094 229.898438 C 271.726562 229.933594 271.707031 229.96875 271.683594 230 C 271.574219 230.164062 271.460938 230.328125 271.34375 230.488281 C 271.324219 230.511719 271.3125 230.535156 271.296875 230.558594 C 271.171875 230.722656 271.042969 230.882812 270.910156 231.042969 C 270.894531 231.0625 270.882812 231.082031 270.867188 231.097656 C 270.71875 231.277344 270.5625 231.449219 270.402344 231.621094 C 270.164062 231.878906 269.914062 232.125 269.652344 232.367188 C 266.773438 235.003906 262.570312 236.6875 257.101562 237.394531 C 256.105469 237.523438 255.070312 237.621094 253.992188 237.6875 C 252.914062 237.75 251.796875 237.785156 250.636719 237.785156 C 248.910156 237.785156 247.066406 237.710938 245.152344 237.566406 C 240.898438 237.25 236.382812 236.574219 231.839844 235.601562 C 234.332031 237.496094 236.757812 239.539062 238.996094 241.65625 C 245.683594 247.96875 253.488281 257.511719 252.714844 267.109375 C 252.308594 272.160156 249.535156 276.15625 245.589844 279.019531 L 248.953125 282.550781 L 248.363281 282.769531 C 246.554688 283.433594 244.644531 283.769531 242.683594 283.769531 C 240.847656 283.769531 239.042969 283.480469 237.292969 282.988281 C 234.324219 283.855469 231.191406 284.300781 228.144531 284.300781 C 227.96875 284.300781 227.796875 284.300781 227.621094 284.296875 C 224.296875 284.238281 220.96875 283.964844 217.648438 283.546875 L 217.648438 283.550781 C 217.484375 283.53125 217.320312 283.507812 217.15625 283.488281 C 216.921875 283.457031 216.6875 283.425781 216.453125 283.394531 C 215.972656 283.328125 215.492188 283.261719 215.015625 283.191406 C 214.789062 283.15625 214.566406 283.125 214.34375 283.089844 C 213.820312 283.011719 213.296875 282.925781 212.773438 282.839844 C 212.503906 282.796875 212.230469 282.75 211.957031 282.703125 C 211.59375 282.640625 211.226562 282.578125 210.863281 282.511719 C 210.585938 282.464844 210.308594 282.414062 210.03125 282.363281 C 209.480469 282.261719 208.929688 282.160156 208.382812 282.054688 C 208.070312 281.992188 207.757812 281.929688 207.445312 281.871094 C 207.136719 281.808594 206.832031 281.75 206.527344 281.6875 C 206.195312 281.617188 205.863281 281.550781 205.53125 281.484375 C 205.242188 281.421875 204.953125 281.363281 204.664062 281.300781 C 204.074219 281.175781 203.484375 281.050781 202.894531 280.921875 C 202.644531 280.867188 202.394531 280.8125 202.148438 280.757812 C 201.777344 280.675781 201.40625 280.59375 201.039062 280.507812 C 200.808594 280.457031 200.582031 280.40625 200.351562 280.355469 C 198.996094 280.046875 197.644531 279.734375 196.292969 279.417969 C 196.257812 279.410156 196.21875 279.402344 196.179688 279.390625 C 195.199219 279.160156 194.214844 278.929688 193.238281 278.699219 L 190.539062 278.0625 C 190.347656 278.019531 190.148438 277.96875 189.957031 277.921875 C 189.761719 277.96875 189.5625 278.019531 189.367188 278.0625 L 186.671875 278.699219 C 175.449219 281.351562 163.84375 284.09375 152.289062 284.296875 C 152.113281 284.300781 151.9375 284.300781 151.761719 284.300781 C 148.71875 284.300781 145.585938 283.855469 142.617188 282.988281 C 140.867188 283.480469 139.0625 283.769531 137.226562 283.769531 C 135.773438 283.769531 134.351562 283.582031 132.976562 283.21875 C 132.96875 283.21875 132.960938 283.214844 132.953125 283.214844 C 132.480469 283.085938 132.007812 282.9375 131.546875 282.769531 L 130.957031 282.550781 L 134.320312 279.019531 C 130.371094 276.15625 127.601562 272.160156 127.195312 267.109375 C 126.421875 257.511719 134.226562 247.972656 140.910156 241.65625 C 143.152344 239.539062 145.578125 237.496094 148.070312 235.601562 C 143.527344 236.574219 139.011719 237.25 134.757812 237.566406 C 134.710938 237.570312 134.660156 237.574219 134.613281 237.578125 C 133.769531 237.640625 132.9375 237.6875 132.125 237.722656 C 131.144531 237.761719 130.191406 237.785156 129.273438 237.785156 C 119.992188 237.785156 113.34375 235.710938 109.507812 231.625 C 109.347656 231.453125 109.191406 231.277344 109.042969 231.101562 C 109.011719 231.0625 108.984375 231.027344 108.953125 230.988281 C 108.839844 230.847656 108.726562 230.707031 108.617188 230.558594 C 108.585938 230.519531 108.558594 230.472656 108.527344 230.433594 C 108.425781 230.289062 108.324219 230.148438 108.230469 230.003906 C 108.195312 229.949219 108.164062 229.894531 108.128906 229.839844 C 108.042969 229.707031 107.960938 229.574219 107.882812 229.4375 C 107.835938 229.359375 107.796875 229.28125 107.753906 229.203125 C 107.691406 229.089844 107.628906 228.976562 107.570312 228.859375 C 107.519531 228.75 107.46875 228.640625 107.421875 228.535156 C 107.382812 228.445312 107.339844 228.359375 107.300781 228.269531 C 107.242188 228.132812 107.191406 227.992188 107.136719 227.851562 C 107.117188 227.792969 107.089844 227.730469 107.066406 227.667969 C 107.011719 227.511719 106.964844 227.351562 106.914062 227.191406 C 106.902344 227.152344 106.886719 227.109375 106.875 227.066406 C 106.386719 225.363281 106.335938 223.542969 106.746094 221.691406 C 107.949219 216.273438 113.230469 210.664062 122.894531 204.542969 C 125.273438 203.035156 127.796875 201.582031 130.277344 200.246094 C 126.277344 192.90625 123.589844 185.632812 122.417969 178.796875 C 120.382812 166.933594 123.121094 157.207031 130.332031 150.660156 C 137.554688 144.101562 145.78125 140.777344 154.769531 140.777344 C 172.425781 140.777344 187.707031 153.757812 189.953125 155.761719 C 192.203125 153.757812 207.480469 140.777344 225.140625 140.777344 C 234.128906 140.777344 242.351562 144.101562 249.578125 150.660156 C 256.789062 157.207031 259.527344 166.933594 257.492188 178.796875 C 256.320312 185.632812 253.632812 192.910156 249.632812 200.246094 C 252.113281 201.582031 254.636719 203.035156 257.015625 204.542969 C 266.679688 210.664062 271.960938 216.273438 273.164062 221.691406 C 273.578125 223.542969 273.523438 225.363281 273.035156 227.066406 Z M 148.300781 223.289062 C 152.449219 222.273438 156.792969 220.925781 161.179688 219.191406 C 172.101562 214.871094 177.425781 210.273438 178.796875 207.375 C 178.734375 206.632812 178.707031 205.832031 178.710938 204.992188 C 178.742188 200.292969 180.660156 195.324219 183.371094 192.902344 C 184.601562 191.804688 185.9375 191.296875 187.222656 191.433594 C 188.46875 191.566406 189.367188 191.910156 189.953125 192.484375 C 190.542969 191.910156 191.441406 191.566406 192.6875 191.433594 C 193.976562 191.292969 195.304688 191.804688 196.539062 192.902344 C 199.25 195.324219 201.167969 200.292969 201.199219 204.992188 C 201.203125 205.832031 201.175781 206.632812 201.109375 207.375 C 202.480469 210.273438 207.808594 214.871094 218.730469 219.191406 C 223.117188 220.925781 227.460938 222.273438 231.609375 223.289062 C 244.753906 209.410156 254.15625 193.371094 256.679688 178.65625 C 258.660156 167.085938 256.015625 157.617188 249.023438 151.273438 C 241.953125 144.855469 233.917969 141.605469 225.140625 141.605469 C 206.433594 141.605469 190.398438 156.46875 190.238281 156.621094 C 190.078125 156.769531 189.832031 156.769531 189.671875 156.621094 C 189.511719 156.46875 173.472656 141.605469 154.769531 141.605469 C 145.992188 141.605469 137.957031 144.855469 130.886719 151.273438 C 123.894531 157.617188 121.246094 167.085938 123.230469 178.65625 C 125.75 193.371094 135.15625 209.410156 148.300781 223.289062 Z M 235.113281 220.714844 C 234.285156 221.652344 233.441406 222.578125 232.585938 223.496094 C 238.875 224.957031 245.109375 225.769531 250.558594 225.769531 C 255.371094 225.769531 259.058594 225.136719 260.898438 224.015625 C 260.910156 224.011719 260.917969 224.003906 260.925781 224 C 261.03125 223.933594 261.125 223.871094 261.21875 223.804688 C 261.230469 223.796875 261.238281 223.785156 261.25 223.777344 C 260.734375 222.847656 258.601562 219.78125 250.898438 214.859375 C 248.460938 213.300781 245.820312 211.792969 243.261719 210.433594 C 240.8125 213.898438 238.089844 217.339844 235.113281 220.714844 Z M 144.796875 220.710938 C 141.820312 217.339844 139.097656 213.898438 136.648438 210.433594 C 134.089844 211.792969 131.449219 213.300781 129.007812 214.859375 C 121.308594 219.78125 119.171875 222.847656 118.65625 223.777344 C 118.671875 223.789062 118.683594 223.796875 118.695312 223.804688 C 118.785156 223.871094 118.875 223.933594 118.976562 223.996094 C 118.988281 224.003906 119 224.011719 119.011719 224.019531 C 120.851562 225.136719 124.539062 225.769531 129.351562 225.769531 C 134.890625 225.769531 141.074219 224.976562 147.339844 223.511719 C 146.476562 222.589844 145.628906 221.65625 144.796875 220.710938 Z M 165.285156 229.566406 C 176.539062 225.117188 184.40625 219.613281 188.035156 213.644531 L 188.09375 213.542969 L 188.195312 213.492188 C 188.699219 213.230469 189.105469 212.890625 189.441406 212.496094 C 187.519531 209.515625 188.539062 204.703125 188.816406 203.582031 C 189.007812 202.804688 189 201.78125 188.996094 200.792969 C 188.988281 199.527344 188.980469 198.332031 189.328125 197.4375 C 189.316406 197.3125 189.304688 197.191406 189.289062 197.066406 C 189.191406 197.007812 189.089844 196.960938 188.972656 196.933594 C 188.285156 196.765625 187.726562 196.835938 187.261719 197.148438 C 185.996094 198.007812 185.632812 200.507812 185.34375 202.519531 C 185.28125 202.925781 185.226562 203.316406 185.167969 203.664062 C 185.132812 203.867188 184.957031 204.007812 184.761719 204.007812 C 184.738281 204.007812 184.714844 204.007812 184.6875 204 C 184.464844 203.960938 184.3125 203.75 184.351562 203.523438 C 184.410156 203.179688 184.464844 202.800781 184.523438 202.398438 C 184.835938 200.230469 185.230469 197.527344 186.800781 196.464844 C 187.457031 196.019531 188.25 195.90625 189.167969 196.128906 C 189.171875 196.128906 189.175781 196.132812 189.183594 196.132812 C 189.066406 195.074219 189.015625 194.019531 189.453125 193.160156 C 189.011719 192.671875 188.253906 192.375 187.132812 192.253906 C 186.085938 192.144531 184.976562 192.582031 183.921875 193.519531 C 181.371094 195.796875 179.570312 200.515625 179.539062 205 C 179.53125 205.855469 179.5625 206.664062 179.632812 207.410156 L 179.640625 207.515625 L 179.597656 207.613281 C 178.234375 210.660156 172.757812 215.5 161.484375 219.957031 C 152.542969 223.492188 142.75 225.789062 133.910156 226.425781 C 126.445312 226.960938 120.664062 226.238281 118.230469 224.488281 C 118.21875 224.480469 118.203125 224.46875 118.1875 224.457031 C 118.074219 224.375 117.964844 224.289062 117.863281 224.199219 C 117.734375 224.082031 117.691406 223.894531 117.757812 223.734375 C 118.011719 223.128906 119.710938 219.820312 128.5625 214.164062 C 129.976562 213.261719 131.460938 212.371094 132.957031 211.519531 C 130.507812 209.101562 128.65625 206.128906 126.707031 203.195312 C 125.566406 203.859375 124.433594 204.542969 123.335938 205.242188 C 113.867188 211.238281 108.703125 216.679688 107.550781 221.871094 C 107.128906 223.761719 107.234375 225.625 107.828125 227.34375 C 107.832031 227.34375 107.832031 227.347656 107.832031 227.347656 C 108.296875 228.6875 109.058594 229.9375 110.109375 231.058594 C 113.640625 234.820312 119.738281 236.792969 128.238281 236.941406 C 128.238281 236.941406 128.238281 236.945312 128.238281 236.945312 C 128.582031 236.949219 128.921875 236.957031 129.273438 236.957031 C 130.976562 236.957031 132.804688 236.886719 134.695312 236.746094 C 144.453125 236.011719 155.601562 233.398438 165.285156 229.566406 Z M 221.527344 232.878906 C 219.066406 232.105469 216.648438 231.257812 214.316406 230.335938 C 202.957031 225.84375 194.976562 220.257812 191.226562 214.171875 C 190.726562 213.894531 190.304688 213.554688 189.953125 213.167969 C 189.601562 213.554688 189.183594 213.894531 188.679688 214.171875 C 184.933594 220.257812 176.953125 225.84375 165.589844 230.335938 C 163.261719 231.257812 160.84375 232.105469 158.382812 232.878906 C 167.941406 241.066406 178.746094 248 189.953125 252.730469 C 201.160156 248 211.96875 241.066406 221.527344 232.878906 Z M 190.113281 253.558594 C 190.0625 253.582031 190.007812 253.589844 189.953125 253.589844 C 189.898438 253.589844 189.84375 253.582031 189.792969 253.558594 C 181.570312 250.105469 173.460938 245.457031 165.828125 239.882812 C 160.855469 242.417969 154.792969 246.742188 150 251.269531 L 149.707031 251.546875 C 146.023438 255.019531 139.859375 260.839844 140.609375 265.417969 C 140.855469 266.921875 141.863281 268.214844 143.605469 269.273438 L 157.484375 254.699219 L 157.488281 254.699219 L 157.726562 254.769531 C 157.726562 254.769531 161.289062 255.777344 161.328125 255.789062 C 167.308594 257.488281 173.632812 259.234375 180.65625 261.132812 C 183.824219 261.988281 186.917969 262.820312 189.957031 263.617188 C 192.996094 262.820312 196.085938 261.988281 199.25 261.132812 C 206.277344 259.238281 212.597656 257.488281 218.578125 255.792969 C 218.621094 255.78125 222.183594 254.769531 222.183594 254.769531 L 222.421875 254.699219 L 236.304688 269.273438 C 238.046875 268.210938 239.050781 266.917969 239.296875 265.417969 C 240.050781 260.839844 233.882812 255.019531 230.199219 251.542969 L 229.910156 251.269531 C 225.117188 246.742188 219.050781 242.417969 214.082031 239.882812 C 206.449219 245.457031 198.339844 250.105469 190.113281 253.558594 Z M 134.890625 278.421875 L 143.023438 269.882812 C 141.160156 268.710938 140.074219 267.257812 139.792969 265.550781 C 138.972656 260.539062 145.335938 254.53125 149.140625 250.945312 L 149.433594 250.667969 C 152.230469 248.023438 155.46875 245.445312 158.671875 243.242188 C 157.726562 242.675781 156.785156 242.097656 155.855469 241.492188 C 153.335938 239.859375 150.882812 238.121094 148.46875 236.332031 C 146.039062 238.1875 143.667969 240.1875 141.480469 242.257812 C 134.925781 248.449219 127.273438 257.773438 128.019531 267.042969 C 128.40625 271.867188 131.078125 275.683594 134.890625 278.421875 Z M 188.195312 277.488281 C 181.449219 275.789062 174.179688 273.496094 168.714844 271.773438 C 167.078125 271.257812 165.566406 270.78125 164.246094 270.378906 C 163.992188 270.425781 163.742188 270.472656 163.488281 270.519531 L 162.871094 270.632812 C 162 270.789062 161.121094 270.949219 160.234375 271.101562 C 157.476562 274.035156 151.285156 279.933594 143.984375 282.507812 C 146.53125 283.144531 149.179688 283.476562 151.761719 283.476562 C 151.933594 283.476562 152.105469 283.472656 152.273438 283.46875 C 163.738281 283.265625 175.300781 280.535156 186.480469 277.894531 Z M 162.515625 269.855469 C 162.191406 269.761719 161.878906 269.671875 161.597656 269.59375 C 161.492188 269.714844 161.34375 269.890625 161.160156 270.101562 C 161.613281 270.019531 162.066406 269.9375 162.515625 269.855469 Z M 217.699219 283.140625 L 217.699219 283.144531 Z M 235.839844 282.527344 C 228.507812 279.957031 222.375 274.042969 219.644531 271.097656 C 219.128906 271.007812 218.617188 270.917969 218.105469 270.824219 L 218.117188 270.410156 L 218.042969 270.816406 L 216.417969 270.519531 C 204.585938 268.367188 193.125 265.359375 180.441406 261.929688 C 173.414062 260.03125 167.085938 258.285156 161.101562 256.585938 C 161.101562 256.585938 160.996094 256.554688 157.738281 255.632812 L 132.433594 282.199219 C 146.457031 286.699219 160.980469 269.042969 161.128906 268.863281 L 161.296875 268.652344 L 161.558594 268.722656 C 163.300781 269.203125 165.925781 270.027344 168.964844 270.988281 C 175.054688 272.90625 183.398438 275.535156 190.730469 277.257812 L 193.425781 277.894531 C 201.351562 279.765625 209.542969 281.703125 217.710938 282.726562 L 217.710938 282.722656 C 221.019531 283.136719 224.332031 283.410156 227.636719 283.46875 C 227.804688 283.472656 227.976562 283.476562 228.144531 283.476562 C 230.699219 283.476562 233.320312 283.152344 235.839844 282.527344 Z M 217.757812 269.921875 C 218.085938 269.980469 218.417969 270.042969 218.746094 270.101562 C 218.5625 269.890625 218.414062 269.714844 218.3125 269.59375 C 218.03125 269.671875 217.71875 269.761719 217.398438 269.855469 Z M 222.167969 255.632812 C 218.800781 256.585938 218.800781 256.585938 218.792969 256.589844 C 212.820312 258.285156 206.496094 260.035156 199.46875 261.929688 C 196.789062 262.65625 194.167969 263.359375 191.585938 264.039062 C 199.777344 266.167969 207.625 268.042969 215.613281 269.527344 C 216.667969 269.203125 217.59375 268.929688 218.351562 268.722656 L 218.609375 268.652344 L 218.78125 268.863281 C 218.894531 269.003906 230.339844 282.941406 242.683594 282.941406 C 244.328125 282.941406 245.9375 282.691406 247.476562 282.199219 Z M 231.707031 236.539062 C 228.316406 238.90625 224.722656 240.976562 221.222656 243.234375 C 224.433594 245.441406 227.671875 248.019531 230.476562 250.667969 L 230.769531 250.945312 C 234.570312 254.535156 240.9375 260.539062 240.117188 265.550781 C 239.835938 267.257812 238.75 268.710938 236.886719 269.886719 L 245.019531 278.421875 C 248.828125 275.683594 251.5 271.867188 251.890625 267.042969 C 252.636719 257.773438 244.984375 248.449219 238.429688 242.257812 C 236.320312 240.261719 234.042969 238.335938 231.707031 236.539062 Z M 272.359375 221.871094 C 271.207031 216.679688 266.042969 211.238281 256.574219 205.242188 C 255.230469 204.390625 253.839844 203.558594 252.4375 202.75 C 251.351562 206.050781 249.347656 208.867188 247.320312 211.730469 C 248.691406 212.519531 250.046875 213.335938 251.347656 214.164062 C 260.199219 219.820312 261.898438 223.128906 262.148438 223.734375 C 262.214844 223.894531 262.175781 224.082031 262.042969 224.199219 C 261.945312 224.289062 261.832031 224.375 261.714844 224.460938 C 261.703125 224.46875 261.691406 224.480469 261.679688 224.488281 C 259.246094 226.238281 253.464844 226.960938 246 226.425781 C 237.160156 225.789062 227.367188 223.496094 218.425781 219.957031 C 207.148438 215.5 201.675781 210.660156 200.3125 207.617188 L 200.269531 207.515625 L 200.277344 207.410156 C 200.34375 206.664062 200.375 205.855469 200.371094 205 C 200.339844 200.515625 198.539062 195.796875 195.988281 193.519531 C 194.933594 192.582031 193.820312 192.144531 192.777344 192.253906 C 191.589844 192.382812 190.808594 192.703125 190.378906 193.242188 C 189.777344 194 189.902344 195.183594 190.050781 196.445312 C 190.253906 196.296875 190.484375 196.191406 190.742188 196.128906 C 191.65625 195.90625 192.453125 196.019531 193.109375 196.464844 C 194.679688 197.527344 195.070312 200.230469 195.382812 202.398438 C 195.441406 202.800781 195.496094 203.179688 195.558594 203.523438 C 195.59375 203.75 195.445312 203.960938 195.21875 204 C 195.195312 204.007812 195.171875 204.007812 195.148438 204.007812 C 194.953125 204.007812 194.777344 203.867188 194.742188 203.664062 C 194.683594 203.316406 194.625 202.925781 194.566406 202.519531 C 194.273438 200.507812 193.914062 198.007812 192.644531 197.148438 C 192.183594 196.835938 191.625 196.765625 190.9375 196.933594 C 190.578125 197.019531 190.328125 197.238281 190.152344 197.617188 L 190.132812 197.660156 C 189.808594 198.410156 189.816406 199.617188 189.820312 200.789062 C 189.828125 201.828125 189.835938 202.902344 189.621094 203.777344 C 189.304688 205.058594 187.929688 211.535156 191.710938 213.492188 L 191.816406 213.542969 L 191.875 213.644531 C 195.503906 219.613281 203.371094 225.121094 214.621094 229.566406 C 224.308594 233.398438 235.457031 236.011719 245.214844 236.746094 C 247.105469 236.886719 248.929688 236.957031 250.636719 236.957031 C 250.988281 236.957031 251.328125 236.949219 251.671875 236.945312 C 260.167969 236.796875 266.269531 234.820312 269.800781 231.058594 C 272.195312 228.5 273.105469 225.238281 272.359375 221.871094 Z M 272.359375 221.871094 " fill-opacity="1" fill-rule="nonzero"/></g><path fill="#dd4124" d="M 156.96875 180.4375 C 157.070312 182.34375 155.222656 183.992188 152.84375 184.117188 C 150.460938 184.246094 148.449219 182.800781 148.347656 180.894531 C 148.246094 178.988281 150.09375 177.34375 152.476562 177.214844 C 154.855469 177.089844 156.867188 178.53125 156.96875 180.4375 Z M 227.070312 177.214844 C 224.691406 177.339844 222.84375 178.988281 222.945312 180.894531 C 223.046875 182.800781 225.058594 184.242188 227.4375 184.117188 C 229.820312 183.988281 231.664062 182.339844 231.5625 180.433594 C 231.460938 178.53125 229.449219 177.085938 227.070312 177.214844 Z M 227.070312 177.214844 " fill-opacity="1" fill-rule="nonzero"/><g fill="#0b1515" fill-opacity="1"><g transform="translate(108.795165, 313.558896)"><g><path d="M 2.9375 -2.609375 C 3.84375 -2.328125 4.554688 -2.253906 5.078125 -2.390625 C 5.609375 -2.523438 6.054688 -2.847656 6.421875 -3.359375 C 6.796875 -3.867188 7.242188 -4.707031 7.765625 -5.875 L 20 -32.84375 C 20.46875 -33.851562 20.6875 -34.664062 20.65625 -35.28125 C 20.632812 -35.90625 20.359375 -36.382812 19.828125 -36.71875 C 19.460938 -36.96875 19.144531 -37.15625 18.875 -37.28125 L 17.578125 -37.8125 C 17.597656 -37.988281 17.6875 -38.25 17.84375 -38.59375 L 19.3125 -41.015625 C 21.65625 -40.285156 24.140625 -39.578125 26.765625 -38.890625 C 29.398438 -38.210938 31.113281 -37.765625 31.90625 -37.546875 L 31.8125 -36.25 C 31.03125 -35.863281 28.914062 -32.335938 25.46875 -25.671875 C 22.019531 -19.015625 18.09375 -10.84375 13.6875 -1.15625 C 13.25 -0.1875 13.078125 0.550781 13.171875 1.0625 C 13.265625 1.582031 13.625 1.984375 14.25 2.265625 C 14.519531 2.390625 14.820312 2.503906 15.15625 2.609375 C 15.488281 2.710938 15.710938 2.789062 15.828125 2.84375 L 15.84375 3.25 L 13.609375 6.453125 C 13.203125 6.222656 12.398438 5.800781 11.203125 5.1875 C 10.015625 4.582031 8.757812 3.976562 7.4375 3.375 C 6.238281 2.832031 4.9375 2.296875 3.53125 1.765625 C 2.132812 1.242188 1.234375 0.925781 0.828125 0.8125 Z M 18.765625 -9.5 L 26.984375 -12.640625 C 27.660156 -12.898438 28.148438 -13.132812 28.453125 -13.34375 C 28.765625 -13.550781 28.984375 -13.789062 29.109375 -14.0625 C 29.296875 -14.488281 29.191406 -14.894531 28.796875 -15.28125 C 28.410156 -15.664062 27.65625 -16.117188 26.53125 -16.640625 L 26.5 -17.015625 L 28.328125 -19.609375 C 28.785156 -19.398438 29.671875 -18.972656 30.984375 -18.328125 C 32.304688 -17.679688 33.742188 -17.007812 35.296875 -16.3125 C 36.378906 -15.820312 37.597656 -15.3125 38.953125 -14.78125 C 40.304688 -14.257812 41.1875 -13.929688 41.59375 -13.796875 L 41.640625 -13.4375 L 39.703125 -10.375 C 38.117188 -10.5 36.445312 -10.328125 34.6875 -9.859375 C 32.9375 -9.390625 30.660156 -8.640625 27.859375 -7.609375 C 27.859375 -7.609375 27.066406 -7.316406 25.484375 -6.734375 L 27 3.078125 C 27.34375 5.003906 27.820312 6.515625 28.4375 7.609375 C 29.0625 8.710938 29.921875 9.554688 31.015625 10.140625 L 31.03125 10.71875 L 29.328125 13.375 C 28.984375 13.3125 28.285156 13.144531 27.234375 12.875 C 26.191406 12.613281 25.367188 12.367188 24.765625 12.140625 C 23.742188 11.722656 22.925781 11.265625 22.3125 10.765625 C 21.46875 10.140625 20.84375 9.320312 20.4375 8.3125 C 20.03125 7.3125 19.726562 5.90625 19.53125 4.09375 L 18.03125 -8.21875 Z M 18.765625 -9.5 "/></g></g></g><g fill="#0b1515" fill-opacity="1"><g transform="translate(142.960179, 327.859774)"><g><path d="M 2.9375 -2.703125 C 4.1875 -2.640625 5.160156 -2.84375 5.859375 -3.3125 C 6.566406 -3.78125 7.054688 -4.597656 7.328125 -5.765625 L 10.484375 -19.171875 C 10.796875 -20.503906 10.820312 -21.460938 10.5625 -22.046875 C 10.3125 -22.628906 9.691406 -23.035156 8.703125 -23.265625 C 8.410156 -23.335938 8.113281 -23.382812 7.8125 -23.40625 C 7.507812 -23.4375 7.3125 -23.441406 7.21875 -23.421875 L 8.4375 -26.875 C 10.832031 -26.65625 13.285156 -26.476562 15.796875 -26.34375 C 18.304688 -26.21875 19.925781 -26.15625 20.65625 -26.15625 L 20.984375 -25.015625 C 20.316406 -24.222656 19.367188 -21.816406 18.140625 -17.796875 C 16.910156 -13.773438 15.644531 -9.015625 14.34375 -3.515625 C 14.113281 -2.515625 14.09375 -1.769531 14.28125 -1.28125 C 14.46875 -0.800781 14.910156 -0.476562 15.609375 -0.3125 C 15.984375 -0.21875 16.351562 -0.148438 16.71875 -0.109375 C 17.082031 -0.0664062 17.328125 -0.0351562 17.453125 -0.015625 L 17.5625 0.328125 L 16.046875 3.984375 C 15.597656 3.828125 14.707031 3.570312 13.375 3.21875 C 12.039062 2.863281 10.671875 2.519531 9.265625 2.1875 C 7.972656 1.882812 6.488281 1.628906 4.8125 1.421875 C 3.132812 1.222656 2.035156 1.109375 1.515625 1.078125 Z M 16.890625 -32.6875 C 15.523438 -33.007812 14.5625 -33.648438 14 -34.609375 C 13.445312 -35.566406 13.328125 -36.707031 13.640625 -38.03125 C 13.984375 -39.519531 14.707031 -40.617188 15.8125 -41.328125 C 16.925781 -42.035156 18.226562 -42.210938 19.71875 -41.859375 C 21.039062 -41.546875 21.976562 -40.898438 22.53125 -39.921875 C 23.082031 -38.941406 23.203125 -37.785156 22.890625 -36.453125 C 22.546875 -35.003906 21.820312 -33.925781 20.71875 -33.21875 C 19.613281 -32.519531 18.335938 -32.34375 16.890625 -32.6875 Z M 16.890625 -32.6875 "/></g></g></g><g fill="#0b1515" fill-opacity="1"><g transform="translate(165.297042, 333.571307)"><g><path d="M 20.453125 -2.921875 C 21.523438 -3.097656 22.285156 -3.457031 22.734375 -4 C 23.191406 -4.539062 23.457031 -5.34375 23.53125 -6.40625 L 24.015625 -17.453125 C 24.066406 -19.328125 23.765625 -20.726562 23.109375 -21.65625 C 22.460938 -22.582031 21.4375 -23.0625 20.03125 -23.09375 C 18.414062 -23.144531 16.523438 -22.394531 14.359375 -20.84375 C 13.722656 -13.1875 13.378906 -8.398438 13.328125 -6.484375 C 13.304688 -5.421875 13.425781 -4.671875 13.6875 -4.234375 C 13.957031 -3.804688 14.453125 -3.582031 15.171875 -3.5625 L 16.90625 -3.578125 L 17.015625 -3.328125 L 16.28125 0.609375 C 15.8125 0.554688 14.925781 0.492188 13.625 0.421875 C 12.332031 0.347656 10.984375 0.289062 9.578125 0.25 C 8.210938 0.21875 6.726562 0.234375 5.125 0.296875 C 3.53125 0.359375 2.5 0.40625 2.03125 0.4375 L 2.640625 -3.515625 C 3.878906 -3.609375 4.75 -3.910156 5.25 -4.421875 C 5.757812 -4.941406 6.03125 -5.800781 6.0625 -7 L 6.421875 -20.53125 C 6.453125 -22.007812 6.25 -23.019531 5.8125 -23.5625 C 5.382812 -24.101562 4.578125 -24.390625 3.390625 -24.421875 L 2.5625 -24.453125 L 2.3125 -24.765625 L 2.71875 -28.09375 C 5.15625 -28.375 7.554688 -28.71875 9.921875 -29.125 C 12.296875 -29.53125 13.828125 -29.785156 14.515625 -29.890625 L 15.015625 -29.234375 C 14.921875 -28.972656 14.773438 -28.398438 14.578125 -27.515625 C 14.390625 -26.628906 14.257812 -25.738281 14.1875 -24.84375 L 14.453125 -24.59375 C 15.796875 -25.707031 17.34375 -26.828125 19.09375 -27.953125 C 20.851562 -29.078125 22.117188 -29.628906 22.890625 -29.609375 C 25.898438 -29.523438 28.222656 -28.738281 29.859375 -27.25 C 31.503906 -25.757812 32.296875 -23.722656 32.234375 -21.140625 C 32.210938 -20.492188 31.984375 -18.265625 31.546875 -14.453125 C 31.003906 -10.117188 30.71875 -7.332031 30.6875 -6.09375 C 30.65625 -4.988281 30.789062 -4.195312 31.09375 -3.71875 C 31.394531 -3.238281 31.890625 -2.992188 32.578125 -2.984375 C 33.003906 -2.960938 33.410156 -2.96875 33.796875 -3 C 34.179688 -3.039062 34.4375 -3.054688 34.5625 -3.046875 L 34.6875 -2.796875 L 34.015625 1.078125 C 33.503906 1.023438 32.578125 0.957031 31.234375 0.875 C 29.890625 0.800781 28.519531 0.742188 27.125 0.703125 C 26.09375 0.679688 24.78125 0.722656 23.1875 0.828125 C 21.59375 0.941406 20.539062 1.015625 20.03125 1.046875 Z M 20.453125 -2.921875 "/></g></g></g><g fill="#0b1515" fill-opacity="1"><g transform="translate(206.62522, 333.735262)"><g><path d="M 24.40625 -33.046875 C 22.269531 -32.316406 20.773438 -31.828125 19.921875 -31.578125 L 19.75 -31.15625 C 21.832031 -29.769531 23.144531 -27.914062 23.6875 -25.59375 C 24.175781 -23.519531 24.039062 -21.492188 23.28125 -19.515625 C 22.519531 -17.546875 21.234375 -15.84375 19.421875 -14.40625 C 17.617188 -12.976562 15.453125 -11.96875 12.921875 -11.375 C 11.566406 -11.050781 10.179688 -10.898438 8.765625 -10.921875 C 8.347656 -10.335938 8.0625 -9.863281 7.90625 -9.5 C 7.75 -9.132812 7.707031 -8.789062 7.78125 -8.46875 C 7.96875 -7.675781 8.695312 -7.253906 9.96875 -7.203125 C 11.25 -7.160156 13.234375 -7.300781 15.921875 -7.625 C 18.753906 -7.976562 21.101562 -8.175781 22.96875 -8.21875 C 24.84375 -8.269531 26.546875 -7.960938 28.078125 -7.296875 C 29.617188 -6.640625 30.601562 -5.421875 31.03125 -3.640625 C 31.488281 -1.691406 31.132812 0.351562 29.96875 2.5 C 28.8125 4.65625 27.101562 6.582031 24.84375 8.28125 C 22.582031 9.976562 20.0625 11.15625 17.28125 11.8125 C 13.96875 12.59375 11.128906 12.414062 8.765625 11.28125 C 6.398438 10.15625 4.90625 8.269531 4.28125 5.625 C 5.082031 4.238281 6.789062 2.234375 9.40625 -0.390625 L 9.3125 -0.8125 C 7.238281 -0.675781 5.523438 -1.023438 4.171875 -1.859375 C 2.828125 -2.703125 1.910156 -3.960938 1.421875 -5.640625 C 2.546875 -7.523438 3.914062 -9.316406 5.53125 -11.015625 L 5.453125 -11.375 C 3.753906 -11.90625 2.316406 -12.796875 1.140625 -14.046875 C -0.0234375 -15.296875 -0.820312 -16.832031 -1.25 -18.65625 C -1.757812 -20.8125 -1.660156 -22.90625 -0.953125 -24.9375 C -0.242188 -26.96875 0.960938 -28.707031 2.671875 -30.15625 C 4.390625 -31.601562 6.46875 -32.613281 8.90625 -33.1875 C 9.9375 -33.425781 11.1875 -33.585938 12.65625 -33.671875 C 14.019531 -33.816406 14.953125 -33.953125 15.453125 -34.078125 C 16.921875 -34.503906 19.660156 -35.875 23.671875 -38.1875 L 24.09375 -38 Z M 13.078125 -15.75 C 14.566406 -16.101562 15.59375 -16.890625 16.15625 -18.109375 C 16.71875 -19.328125 16.769531 -20.910156 16.3125 -22.859375 C 15.820312 -24.929688 14.96875 -26.476562 13.75 -27.5 C 12.53125 -28.519531 11.066406 -28.832031 9.359375 -28.4375 C 7.910156 -28.09375 6.898438 -27.316406 6.328125 -26.109375 C 5.765625 -24.910156 5.722656 -23.296875 6.203125 -21.265625 C 6.679688 -19.234375 7.53125 -17.707031 8.75 -16.6875 C 9.976562 -15.675781 11.421875 -15.363281 13.078125 -15.75 Z M 13.359375 -0.921875 C 12.753906 -0.117188 12.335938 0.71875 12.109375 1.59375 C 11.890625 2.476562 11.875 3.3125 12.0625 4.09375 C 12.351562 5.300781 13.0625 6.128906 14.1875 6.578125 C 15.3125 7.035156 16.765625 7.054688 18.546875 6.640625 C 20.566406 6.160156 22.164062 5.3125 23.34375 4.09375 C 24.53125 2.882812 24.972656 1.640625 24.671875 0.359375 C 24.515625 -0.304688 24.140625 -0.773438 23.546875 -1.046875 C 22.960938 -1.328125 21.914062 -1.453125 20.40625 -1.421875 C 18.90625 -1.398438 16.554688 -1.234375 13.359375 -0.921875 Z M 13.359375 -0.921875 "/></g></g></g><g fill="#0b1515" fill-opacity="1"><g transform="translate(242.605696, 324.359534)"><g><path d="M 10.09375 -4.0625 C 8.71875 -3.382812 7.40625 -2.882812 6.15625 -2.5625 C 4.914062 -2.25 3.910156 -2.054688 3.140625 -1.984375 C 2.378906 -1.921875 1.898438 -1.890625 1.703125 -1.890625 L 1.078125 -2.296875 C 0.734375 -3.398438 0.296875 -4.675781 -0.234375 -6.125 C -0.773438 -7.570312 -1.3125 -8.945312 -1.84375 -10.25 L 1.171875 -12.0625 C 3.085938 -8.21875 5.726562 -7.113281 9.09375 -8.75 C 10.207031 -9.289062 11.007812 -9.972656 11.5 -10.796875 C 12 -11.628906 12.070312 -12.410156 11.71875 -13.140625 C 11.34375 -13.910156 10.617188 -14.425781 9.546875 -14.6875 C 8.472656 -14.945312 6.515625 -15.070312 3.671875 -15.0625 C 0.859375 -15.019531 -1.351562 -15.347656 -2.96875 -16.046875 C -4.582031 -16.753906 -5.78125 -17.914062 -6.5625 -19.53125 C -7.394531 -21.238281 -7.632812 -22.992188 -7.28125 -24.796875 C -6.9375 -26.609375 -6.046875 -28.328125 -4.609375 -29.953125 C -3.179688 -31.578125 -1.316406 -32.945312 0.984375 -34.0625 C 2.097656 -34.601562 3.171875 -35.023438 4.203125 -35.328125 C 5.234375 -35.640625 6.066406 -35.84375 6.703125 -35.9375 C 7.347656 -36.039062 7.757812 -36.109375 7.9375 -36.140625 L 8.5 -35.703125 C 8.613281 -35.242188 8.90625 -34.21875 9.375 -32.625 C 9.851562 -31.03125 10.394531 -29.410156 11 -27.765625 L 7.890625 -25.984375 L 7.453125 -27.046875 C 6.804688 -28.378906 6.003906 -29.203125 5.046875 -29.515625 C 4.085938 -29.835938 2.921875 -29.664062 1.546875 -29 C 0.546875 -28.507812 -0.179688 -27.859375 -0.640625 -27.046875 C -1.097656 -26.234375 -1.148438 -25.460938 -0.796875 -24.734375 C -0.441406 -24.003906 0.1875 -23.484375 1.09375 -23.171875 C 2 -22.859375 3.332031 -22.703125 5.09375 -22.703125 C 7.875 -22.722656 10.070312 -22.601562 11.6875 -22.34375 C 13.300781 -22.09375 14.550781 -21.648438 15.4375 -21.015625 C 16.332031 -20.390625 17.066406 -19.488281 17.640625 -18.3125 C 18.410156 -16.738281 18.597656 -15.046875 18.203125 -13.234375 C 17.804688 -11.429688 16.890625 -9.707031 15.453125 -8.0625 C 14.015625 -6.425781 12.226562 -5.09375 10.09375 -4.0625 Z M 10.09375 -4.0625 "/></g></g></g><g fill="#0b1515" fill-opacity="1"><g transform="translate(137.047794, 95.981773)"><g><path d="M 1.125 -4.46875 C 2.257812 -5.039062 2.914062 -5.691406 3.09375 -6.421875 C 3.269531 -7.148438 3.023438 -8.273438 2.359375 -9.796875 L -2.703125 -21.453125 C -3.273438 -22.785156 -3.84375 -23.613281 -4.40625 -23.9375 C -4.96875 -24.269531 -5.742188 -24.222656 -6.734375 -23.796875 L -7.796875 -23.28125 L -8.28125 -23.546875 L -9.1875 -26.625 C -7.28125 -27.875 -5.335938 -29.1875 -3.359375 -30.5625 C -1.378906 -31.9375 -0.0976562 -32.816406 0.484375 -33.203125 L 1.234375 -32.90625 C 1.304688 -32.519531 1.519531 -31.726562 1.875 -30.53125 C 2.226562 -29.332031 2.613281 -28.203125 3.03125 -27.140625 L 3.5 -27.0625 C 3.90625 -29.425781 4.617188 -31.429688 5.640625 -33.078125 C 6.671875 -34.722656 7.851562 -35.832031 9.1875 -36.40625 C 9.726562 -36.644531 10.179688 -36.820312 10.546875 -36.9375 C 10.921875 -37.050781 11.175781 -37.113281 11.3125 -37.125 L 11.734375 -36.765625 C 11.898438 -36.054688 12.328125 -34.535156 13.015625 -32.203125 C 13.703125 -29.878906 14.421875 -27.695312 15.171875 -25.65625 L 11.53125 -23.796875 C 10.71875 -25.671875 10.070312 -26.863281 9.59375 -27.375 C 9.113281 -27.882812 8.539062 -28 7.875 -27.71875 C 7.25 -27.4375 6.6875 -26.910156 6.1875 -26.140625 C 5.6875 -25.367188 5.300781 -24.4375 5.03125 -23.34375 C 5.476562 -22.238281 6.164062 -20.414062 7.09375 -17.875 C 8.03125 -15.34375 8.800781 -13.320312 9.40625 -11.8125 C 9.851562 -10.789062 10.328125 -10.160156 10.828125 -9.921875 C 11.328125 -9.679688 12.003906 -9.742188 12.859375 -10.109375 C 13.453125 -10.367188 14.03125 -10.644531 14.59375 -10.9375 C 15.164062 -11.226562 15.539062 -11.4375 15.71875 -11.5625 L 16.046875 -11.28125 L 17.078125 -7.140625 C 16.523438 -6.941406 15.5 -6.550781 14 -5.96875 C 12.507812 -5.394531 10.988281 -4.769531 9.4375 -4.09375 C 7.945312 -3.445312 6.472656 -2.769531 5.015625 -2.0625 C 3.554688 -1.363281 2.617188 -0.90625 2.203125 -0.6875 Z M 1.125 -4.46875 "/></g></g></g><g fill="#0b1515" fill-opacity="1"><g transform="translate(157.015907, 86.641799)"><g><path d="M 15.9375 -2.4375 C 11.550781 -1.550781 7.832031 -2.132812 4.78125 -4.1875 C 1.738281 -6.25 -0.234375 -9.507812 -1.140625 -13.96875 C -1.742188 -16.96875 -1.640625 -19.804688 -0.828125 -22.484375 C -0.0234375 -25.171875 1.351562 -27.441406 3.3125 -29.296875 C 5.28125 -31.160156 7.644531 -32.375 10.40625 -32.9375 C 17.40625 -34.351562 21.625 -31.507812 23.0625 -24.40625 C 23.320312 -23.15625 23.414062 -21.957031 23.34375 -20.8125 L 22.75 -19.90625 L 6.546875 -16.625 C 7.203125 -13.59375 8.390625 -11.410156 10.109375 -10.078125 C 11.828125 -8.753906 13.9375 -8.347656 16.4375 -8.859375 C 18.613281 -9.296875 20.972656 -10.425781 23.515625 -12.25 L 24 -12.09375 L 25.625 -9.21875 C 24.3125 -7.738281 22.742188 -6.316406 20.921875 -4.953125 C 19.097656 -3.585938 17.4375 -2.75 15.9375 -2.4375 Z M 14.3125 -22.3125 C 14.8125 -22.457031 15.113281 -22.625 15.21875 -22.8125 C 15.320312 -23.007812 15.316406 -23.40625 15.203125 -24 C 14.578125 -27.082031 12.953125 -28.359375 10.328125 -27.828125 C 8.703125 -27.492188 7.492188 -26.65625 6.703125 -25.3125 C 5.910156 -23.976562 5.625 -22.226562 5.84375 -20.0625 Z M 14.3125 -22.3125 "/></g></g></g><g fill="#0b1515" fill-opacity="1"><g transform="translate(182.454681, 81.736988)"><g><path d="M 1.390625 -3.34375 C 2.359375 -3.59375 3.0625 -3.925781 3.5 -4.34375 C 3.9375 -4.757812 4.207031 -5.273438 4.3125 -5.890625 C 4.425781 -6.515625 4.46875 -7.445312 4.4375 -8.6875 L 3.6875 -38.28125 C 3.65625 -39.4375 3.539062 -40.253906 3.34375 -40.734375 C 3.144531 -41.222656 2.765625 -41.53125 2.203125 -41.65625 C 1.640625 -41.789062 0.722656 -41.800781 -0.546875 -41.6875 L -0.8125 -41.9375 L -0.515625 -45.328125 C 4.609375 -46.140625 8.890625 -46.929688 12.328125 -47.703125 L 12.8125 -46.5 C 12.25 -45.070312 11.878906 -40.71875 11.703125 -33.4375 C 11.523438 -26.164062 11.566406 -17.359375 11.828125 -7.015625 C 11.859375 -5.953125 12.023438 -5.207031 12.328125 -4.78125 C 12.640625 -4.363281 13.140625 -4.164062 13.828125 -4.1875 L 15.9375 -4.359375 L 16.125 -3.984375 L 15.515625 -0.203125 L 13.40625 -0.21875 C 11.019531 -0.238281 9.316406 -0.238281 8.296875 -0.21875 C 6.679688 -0.175781 4.257812 0.078125 1.03125 0.546875 Z M 1.390625 -3.34375 "/></g></g></g><g fill="#0b1515" fill-opacity="1"><g transform="translate(195.635974, 80.447691)"><g><path d="M 23.984375 4.484375 C 22.128906 4.203125 20.726562 3.566406 19.78125 2.578125 C 18.84375 1.597656 18.390625 0.289062 18.421875 -1.34375 L 17.96875 -1.609375 C 16.394531 -0.421875 14.90625 0.523438 13.5 1.234375 C 12.101562 1.941406 11.023438 2.238281 10.265625 2.125 C 7.785156 1.738281 5.859375 0.546875 4.484375 -1.453125 C 3.117188 -3.453125 2.640625 -5.757812 3.046875 -8.375 C 3.242188 -9.675781 3.75 -10.75 4.5625 -11.59375 C 5.382812 -12.4375 6.367188 -12.921875 7.515625 -13.046875 L 20.140625 -14 L 20.4375 -15.5 C 20.71875 -17.3125 20.453125 -18.796875 19.640625 -19.953125 C 18.828125 -21.117188 17.582031 -21.832031 15.90625 -22.09375 C 14.757812 -22.269531 13.476562 -22.171875 12.0625 -21.796875 C 10.65625 -21.429688 9.320312 -20.921875 8.0625 -20.265625 L 7.53125 -20.609375 L 7.046875 -24.5625 C 9.328125 -25.40625 11.703125 -26.15625 14.171875 -26.8125 C 16.640625 -27.46875 18.359375 -27.71875 19.328125 -27.5625 C 22.816406 -27.019531 25.3125 -25.820312 26.8125 -23.96875 C 28.3125 -22.125 28.863281 -19.921875 28.46875 -17.359375 C 28.320312 -16.429688 27.84375 -14.566406 27.03125 -11.765625 C 25.9375 -7.765625 25.328125 -5.363281 25.203125 -4.5625 C 25.078125 -3.769531 25.1875 -3.109375 25.53125 -2.578125 C 25.875 -2.046875 26.382812 -1.726562 27.0625 -1.625 C 27.5625 -1.550781 28.113281 -1.582031 28.71875 -1.71875 C 29.320312 -1.863281 29.835938 -2.03125 30.265625 -2.21875 L 31 -0.75 C 30.039062 0.476562 28.90625 1.625 27.59375 2.6875 C 26.28125 3.757812 25.078125 4.359375 23.984375 4.484375 Z M 13.515625 -3.515625 C 14.160156 -3.421875 14.941406 -3.472656 15.859375 -3.671875 C 16.773438 -3.878906 17.609375 -4.203125 18.359375 -4.640625 L 19.484375 -10.609375 L 12.4375 -9.765625 C 11.382812 -9.671875 10.769531 -9.054688 10.59375 -7.921875 C 10.414062 -6.816406 10.59375 -5.847656 11.125 -5.015625 C 11.664062 -4.179688 12.460938 -3.679688 13.515625 -3.515625 Z M 13.515625 -3.515625 "/></g></g></g><g fill="#0b1515" fill-opacity="1"><g transform="translate(221.565861, 83.856326)"><g><path d="M 14.5 6.015625 L 16.15625 3.328125 C 17.007812 3.617188 17.640625 3.753906 18.046875 3.734375 C 18.460938 3.722656 18.742188 3.539062 18.890625 3.1875 C 19.078125 2.757812 19.054688 2.085938 18.828125 1.171875 L 17.28125 -5.125 C 16.976562 -4.976562 16.191406 -4.550781 14.921875 -3.84375 C 13.648438 -3.144531 12.597656 -2.503906 11.765625 -1.921875 C 10.929688 -1.347656 10.453125 -0.90625 10.328125 -0.59375 C 10.140625 -0.15625 10.171875 0.203125 10.421875 0.484375 C 10.671875 0.773438 11.203125 1.109375 12.015625 1.484375 L 12.046875 1.890625 L 10.46875 4.5625 C 10.007812 4.332031 9.191406 3.941406 8.015625 3.390625 C 6.847656 2.835938 5.769531 2.363281 4.78125 1.96875 C 3.800781 1.5625 2.867188 1.195312 1.984375 0.875 C 1.097656 0.5625 0.507812 0.367188 0.21875 0.296875 L 0.15625 -0.203125 L 1.765625 -2.78125 C 2.660156 -2.875 3.519531 -3.097656 4.34375 -3.453125 C 5.164062 -3.816406 6.769531 -4.613281 9.15625 -5.84375 L 16.1875 -9.515625 L 14.421875 -16.71875 C 13.984375 -18.75 13.472656 -20.210938 12.890625 -21.109375 C 12.316406 -22.003906 11.414062 -22.847656 10.1875 -23.640625 L 10.1875 -23.96875 L 11.875 -27.09375 C 12.269531 -26.925781 13.085938 -26.5625 14.328125 -26 C 15.566406 -25.445312 17.015625 -24.832031 18.671875 -24.15625 C 20.203125 -23.53125 21.695312 -22.945312 23.15625 -22.40625 C 24.625 -21.875 25.5625 -21.550781 25.96875 -21.4375 L 26.0625 -20.984375 L 24.4375 -18.203125 C 22.9375 -18.804688 22.035156 -18.738281 21.734375 -18 C 21.566406 -17.601562 21.507812 -17.160156 21.5625 -16.671875 C 21.625 -16.191406 21.753906 -15.570312 21.953125 -14.8125 L 23 -10.3125 L 27.34375 -12.8125 C 28.132812 -13.300781 28.710938 -13.679688 29.078125 -13.953125 C 29.441406 -14.222656 29.695312 -14.535156 29.84375 -14.890625 C 29.96875 -15.203125 29.898438 -15.46875 29.640625 -15.6875 C 29.378906 -15.90625 28.835938 -16.1875 28.015625 -16.53125 L 28.015625 -16.8125 L 29.609375 -19.671875 L 34.796875 -17.546875 C 35.898438 -17.085938 36.929688 -16.6875 37.890625 -16.34375 C 38.859375 -16 39.503906 -15.773438 39.828125 -15.671875 L 39.875 -15.3125 L 38.234375 -12.328125 C 36.191406 -12.160156 33.914062 -11.367188 31.40625 -9.953125 L 24.203125 -5.875 L 26.265625 2.28125 C 26.722656 4.070312 27.242188 5.457031 27.828125 6.4375 C 28.421875 7.414062 29.25 8.171875 30.3125 8.703125 L 30.375 9.015625 L 28.65625 11.890625 C 28.226562 11.703125 27.453125 11.359375 26.328125 10.859375 C 25.203125 10.359375 24.082031 9.878906 22.96875 9.421875 C 22.019531 9.035156 20.550781 8.488281 18.5625 7.78125 C 16.582031 7.082031 15.269531 6.625 14.625 6.40625 Z M 14.5 6.015625 "/></g></g></g></svg>